<svg id="svg" version="1.1" xmlns="http://www.w3.org/2000/svg" xmlns:xlink="http://www.w3.org/1999/xlink" width="400" height="400" viewBox="0, 0, 400,400"><g id="svgg"><path id="path0" d="M95.000 200.000 L 95.000 325.333 200.000 325.333 L 305.000 325.333 305.000 200.000 L 305.000 74.667 200.000 74.667 L 95.000 74.667 95.000 200.000 M290.667 111.500 L 290.667 131.667 200.000 131.667 L 109.333 131.667 109.333 111.500 L 109.333 91.333 200.000 91.333 L 290.667 91.333 290.667 111.500 M269.000 99.771 C 265.440 100.900,264.000 103.965,264.000 110.413 C 264.000 118.275,266.408 121.660,272.000 121.660 C 277.832 121.660,280.506 117.748,280.272 109.555 C 280.042 101.485,275.642 97.666,269.000 99.771 M274.701 102.753 C 278.525 105.294,278.482 115.307,274.636 117.946 C 272.330 119.529,268.846 118.576,267.356 115.955 C 266.354 114.192,266.337 106.891,267.331 104.839 C 268.619 102.178,272.278 101.143,274.701 102.753 M191.736 152.963 C 195.035 154.217,195.412 156.018,195.276 169.833 C 195.154 182.109,195.159 182.082,192.776 183.899 L 191.552 184.833 158.134 184.833 C 120.463 184.833,123.948 185.076,122.072 182.320 L 121.311 181.202 121.406 168.517 C 121.511 154.301,121.477 154.501,124.073 153.221 C 125.312 152.610,190.158 152.363,191.736 152.963 M234.727 153.500 C 237.123 155.286,237.167 155.557,237.167 168.500 C 237.167 186.127,238.276 185.000,220.927 184.999 C 207.730 184.999,207.825 185.014,205.857 182.553 L 204.833 181.272 204.833 169.219 C 204.833 155.093,204.999 154.282,208.141 152.983 C 209.766 152.312,233.759 152.778,234.727 153.500 M276.559 153.531 C 279.058 155.383,279.000 155.020,279.000 168.833 C 279.000 186.205,280.198 185.000,262.919 185.000 C 245.572 185.000,246.557 186.056,246.729 167.642 L 246.833 156.450 247.716 155.116 C 249.353 152.645,249.260 152.659,263.226 152.751 C 275.212 152.831,275.650 152.856,276.559 153.531 M150.670 194.417 C 153.274 196.189,153.167 195.528,153.167 209.801 L 153.167 222.552 152.206 223.811 C 150.556 225.975,150.384 226.000,137.144 226.000 C 123.752 226.000,123.662 225.985,122.054 223.556 L 121.167 222.215 121.167 209.858 C 121.167 192.263,119.780 193.667,137.167 193.667 C 149.479 193.667,149.576 193.672,150.670 194.417 M192.900 194.633 C 195.266 196.347,195.333 196.767,195.333 209.902 C 195.333 223.190,195.264 223.564,192.522 225.171 L 191.108 226.000 179.210 226.000 C 161.524 226.000,162.557 227.088,162.729 208.642 L 162.833 197.450 163.657 196.248 C 165.431 193.661,165.301 193.683,179.200 193.674 L 191.567 193.667 192.900 194.633 M234.229 194.219 C 234.869 194.522,235.792 195.374,236.280 196.110 L 237.167 197.450 237.271 208.642 C 237.392 221.577,237.331 222.266,235.928 223.864 C 234.021 226.036,234.273 226.000,220.979 226.000 C 207.419 226.000,207.428 226.001,205.661 223.424 L 204.833 222.217 204.737 210.358 C 204.627 196.800,204.690 196.378,207.087 194.642 L 208.433 193.667 220.750 193.667 C 231.523 193.667,233.212 193.736,234.229 194.219 M275.967 194.150 C 279.234 195.839,279.421 196.797,279.275 211.167 C 279.115 226.914,280.133 226.000,262.758 226.000 L 250.892 226.000 249.478 225.171 C 246.727 223.559,246.666 223.223,246.672 209.645 C 246.680 192.438,245.445 193.667,262.733 193.667 C 272.822 193.667,275.201 193.753,275.967 194.150 M150.670 235.417 C 153.274 237.189,153.167 236.527,153.167 250.800 L 153.167 263.552 152.206 264.811 C 150.556 266.975,150.384 267.000,137.144 267.000 C 123.752 267.000,123.662 266.985,122.054 264.556 L 121.167 263.217 121.067 251.620 C 120.912 233.489,119.748 234.699,137.367 234.680 C 149.482 234.667,149.576 234.672,150.670 235.417 M192.229 235.219 C 192.869 235.522,193.792 236.374,194.280 237.110 L 195.167 238.450 195.262 250.428 C 195.372 264.216,195.317 264.534,192.522 266.171 L 191.108 267.000 179.210 267.000 C 161.524 267.000,162.557 268.088,162.729 249.642 L 162.833 238.450 163.657 237.248 C 165.427 234.667,165.332 234.683,178.950 234.674 C 189.548 234.668,191.212 234.736,192.229 235.219 M234.388 235.404 C 237.188 236.978,237.167 236.858,237.167 250.858 L 237.167 263.216 236.339 264.423 C 234.572 267.002,234.586 267.000,220.984 267.000 L 208.892 267.000 207.478 266.171 C 204.683 264.534,204.628 264.216,204.738 250.428 L 204.833 238.450 205.716 237.116 C 207.329 234.680,207.313 234.683,220.955 234.674 C 232.852 234.667,233.100 234.680,234.388 235.404 M276.559 235.531 C 277.077 235.914,277.837 236.724,278.250 237.330 L 279.000 238.432 279.000 271.138 C 279.000 308.168,279.209 305.385,276.308 306.920 C 274.852 307.689,274.850 307.689,262.450 307.595 C 248.379 307.487,248.915 307.592,247.417 304.660 L 246.667 303.192 246.667 271.201 C 246.667 234.811,246.473 237.294,249.446 235.498 L 250.833 234.660 263.226 234.747 C 275.208 234.830,275.650 234.856,276.559 235.531 M150.705 276.395 C 153.265 277.834,153.333 278.229,153.333 291.701 C 153.333 308.990,154.668 307.667,137.233 307.667 C 124.314 307.667,124.301 307.665,122.596 306.076 C 121.109 304.689,120.938 302.977,121.058 290.667 C 121.216 274.464,119.930 275.667,137.087 275.667 C 149.138 275.667,149.438 275.683,150.705 276.395 M192.893 276.520 C 195.286 278.265,195.366 278.799,195.261 292.226 C 195.130 308.979,196.698 307.500,179.059 307.500 L 166.167 307.500 165.078 306.724 C 162.825 305.116,162.833 305.174,162.833 291.667 C 162.833 274.304,161.455 275.629,179.393 275.749 C 191.474 275.830,191.988 275.859,192.893 276.520 M234.922 276.610 C 237.175 278.217,237.167 278.160,237.167 291.667 C 237.167 308.938,238.616 307.464,221.493 307.595 C 207.569 307.701,207.481 307.689,205.794 305.479 L 204.833 304.220 204.728 292.527 C 204.565 274.432,203.362 275.647,221.333 275.757 C 233.830 275.833,233.834 275.834,234.922 276.610 " stroke="none" fill="#2c4c5c" fill-rule="evenodd"></path><path id="path1" d="M109.333 111.333 L 109.333 131.333 200.000 131.333 L 290.667 131.333 290.667 111.333 L 290.667 91.333 200.000 91.333 L 109.333 91.333 109.333 111.333 M275.632 99.990 C 277.227 100.814,279.178 102.872,279.817 104.406 C 280.653 106.413,280.534 114.691,279.640 116.667 C 276.185 124.308,266.207 123.391,264.116 115.240 C 261.409 104.694,267.955 96.025,275.632 99.990 M269.834 102.506 C 267.123 103.972,266.573 105.491,266.722 111.099 C 266.872 116.750,268.106 118.500,271.941 118.500 C 275.678 118.500,277.037 116.663,277.264 111.308 C 277.572 104.069,274.241 100.123,269.834 102.506 M123.920 194.348 C 121.383 195.700,121.333 196.002,121.333 209.937 C 121.333 227.177,120.014 225.794,136.600 225.933 C 150.246 226.047,150.674 225.983,152.268 223.573 L 153.167 222.215 153.167 209.858 C 153.167 192.370,154.619 193.862,137.500 193.758 C 125.742 193.687,125.109 193.714,123.920 194.348 M166.334 194.035 C 163.105 195.346,163.000 195.847,163.000 209.934 C 163.000 227.265,161.763 226.068,179.526 225.928 L 191.553 225.833 192.777 224.899 C 195.031 223.180,195.000 223.389,195.000 209.733 C 195.000 192.452,196.376 193.860,179.393 193.765 C 171.727 193.722,166.856 193.823,166.334 194.035 M207.657 194.413 C 204.941 196.244,205.000 195.904,205.000 209.733 C 205.000 223.389,204.969 223.180,207.223 224.899 L 208.447 225.833 220.474 225.928 C 238.247 226.068,237.000 227.282,237.000 209.833 C 237.000 192.425,238.417 193.870,221.209 193.739 L 208.799 193.644 207.657 194.413 M249.500 194.469 C 246.835 196.086,246.846 196.026,246.734 208.904 C 246.576 226.990,245.681 226.087,263.595 225.933 C 280.172 225.790,278.797 227.210,278.928 210.089 C 279.034 196.268,279.069 196.516,276.777 194.767 L 275.553 193.833 263.193 193.747 L 250.833 193.660 249.500 194.469 M124.141 235.333 C 121.356 236.725,121.333 236.852,121.333 250.913 C 121.333 268.182,120.011 266.795,136.607 266.930 C 150.256 267.040,150.678 266.977,152.268 264.573 L 153.167 263.215 153.167 250.858 C 153.167 233.388,154.591 234.868,137.667 234.744 C 125.997 234.658,125.444 234.682,124.141 235.333 M166.003 235.407 C 162.945 236.958,163.000 236.674,163.000 250.833 C 163.000 268.282,161.745 267.063,179.559 266.926 C 196.357 266.797,195.000 268.212,195.000 250.833 C 195.000 233.455,196.357 234.870,179.559 234.741 C 167.581 234.649,167.490 234.653,166.003 235.407 M208.334 235.035 C 205.105 236.346,205.000 236.847,205.000 250.934 C 205.000 268.261,203.566 266.833,220.967 266.833 L 233.552 266.833 234.776 265.899 C 237.031 264.180,237.000 264.390,237.000 250.733 C 237.000 233.452,238.376 234.860,221.393 234.765 C 213.727 234.722,208.856 234.823,208.334 235.035 M124.000 276.406 C 121.329 277.761,121.334 277.732,121.334 291.594 C 121.333 304.955,121.376 305.272,123.379 306.700 L 124.500 307.500 136.333 307.600 C 154.634 307.755,153.454 308.935,153.276 290.667 C 153.119 274.577,154.464 275.868,137.726 275.739 C 125.564 275.645,125.492 275.648,124.000 276.406 M166.492 276.020 C 165.937 276.182,164.962 276.851,164.325 277.508 L 163.167 278.703 163.076 291.268 C 162.947 309.031,161.628 307.670,178.969 307.659 C 196.410 307.649,194.997 309.054,194.999 291.706 C 195.000 274.321,196.319 275.652,179.145 275.697 C 172.740 275.713,167.046 275.859,166.492 276.020 M207.758 276.364 C 204.965 277.747,205.000 277.554,205.001 291.706 C 205.003 309.053,203.594 307.649,221.013 307.659 C 238.318 307.670,237.000 308.988,237.000 291.667 C 237.000 274.357,238.307 275.667,221.031 275.667 C 209.665 275.667,209.108 275.696,207.758 276.364 " stroke="none" fill="#f3ecdb" fill-rule="evenodd"></path><path id="path2" d="M185.333 0.347 C 61.867 10.724,-22.120 124.560,4.867 244.953 C 7.346 256.015,11.206 267.665,16.698 280.667 C 29.236 310.346,52.674 339.774,80.175 360.368 C 129.366 397.205,194.117 409.381,253.500 392.960 C 275.678 386.828,300.128 375.167,316.333 362.994 C 316.975 362.512,319.075 360.940,321.000 359.501 C 340.168 345.172,356.140 327.569,370.753 304.667 C 400.844 257.508,408.369 192.706,390.166 137.500 C 378.245 101.348,354.847 67.287,326.500 44.821 C 325.583 44.094,324.758 43.407,324.667 43.294 C 323.783 42.202,312.456 34.250,304.667 29.253 C 281.734 14.543,251.332 4.289,220.333 0.811 C 214.709 0.180,191.053 -0.134,185.333 0.347 M305.000 200.000 L 305.000 325.667 200.000 325.667 L 95.000 325.667 95.000 200.000 L 95.000 74.333 200.000 74.333 L 305.000 74.333 305.000 200.000 " stroke="none" fill="#4cdcc4" fill-rule="evenodd"></path><path id="path3" d="M124.073 153.221 C 121.477 154.501,121.511 154.301,121.406 168.517 L 121.311 181.202 122.072 182.320 C 123.948 185.076,120.463 184.833,158.134 184.833 L 191.552 184.833 192.776 183.899 C 195.159 182.082,195.154 182.109,195.276 169.833 C 195.412 156.018,195.035 154.217,191.736 152.963 C 190.158 152.363,125.312 152.610,124.073 153.221 M208.141 152.983 C 204.999 154.282,204.833 155.093,204.833 169.219 L 204.833 181.272 205.857 182.553 C 207.825 185.014,207.730 184.999,220.927 184.999 C 238.276 185.000,237.167 186.127,237.167 168.500 C 237.167 151.542,238.492 152.859,221.333 152.765 C 214.458 152.728,208.522 152.826,208.141 152.983 M249.716 153.226 C 249.102 153.532,248.202 154.383,247.716 155.116 L 246.833 156.450 246.729 167.642 C 246.557 186.056,245.572 185.000,262.919 185.000 C 280.198 185.000,279.000 186.205,279.000 168.833 C 279.000 151.424,280.414 152.865,263.226 152.751 C 252.213 152.678,250.709 152.731,249.716 153.226 M249.446 235.498 C 246.473 237.294,246.667 234.811,246.667 271.201 L 246.667 303.192 247.417 304.660 C 248.915 307.592,248.379 307.487,262.450 307.595 C 274.850 307.689,274.852 307.689,276.308 306.920 C 279.209 305.385,279.000 308.168,279.000 271.138 L 279.000 238.432 278.250 237.330 C 276.489 234.743,277.076 234.844,263.226 234.747 L 250.833 234.660 249.446 235.498 " stroke="none" fill="#f6846a" fill-rule="evenodd"></path><path id="path4" d="M147.417 74.583 C 176.338 74.630,223.663 74.630,252.583 74.583 C 281.504 74.536,257.842 74.498,200.000 74.498 C 142.158 74.498,118.496 74.536,147.417 74.583 M271.417 99.230 C 271.737 99.314,272.262 99.314,272.583 99.230 C 272.904 99.146,272.642 99.077,272.000 99.077 C 271.358 99.077,271.096 99.146,271.417 99.230 M263.791 110.500 C 263.792 112.517,263.847 113.299,263.913 112.238 C 263.980 111.177,263.979 109.527,263.912 108.571 C 263.845 107.615,263.791 108.483,263.791 110.500 M271.417 121.896 C 271.737 121.980,272.262 121.980,272.583 121.896 C 272.904 121.813,272.642 121.744,272.000 121.744 C 271.358 121.744,271.096 121.813,271.417 121.896 M154.583 131.583 C 179.562 131.630,220.437 131.630,245.417 131.583 C 270.396 131.536,249.958 131.498,200.000 131.498 C 150.042 131.498,129.604 131.536,154.583 131.583 M195.150 209.833 C 195.150 216.433,195.195 219.181,195.249 215.938 C 195.304 212.696,195.304 207.296,195.250 203.938 C 195.195 200.581,195.151 203.233,195.150 209.833 M204.817 209.833 C 204.817 216.433,204.862 219.181,204.916 215.938 C 204.971 212.696,204.971 207.296,204.916 203.938 C 204.862 200.581,204.817 203.233,204.817 209.833 M121.150 209.833 C 121.150 216.250,121.195 218.828,121.250 215.562 C 121.304 212.296,121.304 207.046,121.249 203.895 C 121.195 200.744,121.150 203.417,121.150 209.833 M162.817 209.833 C 162.817 216.250,162.862 218.828,162.916 215.562 C 162.971 212.296,162.971 207.046,162.916 203.895 C 162.861 200.744,162.817 203.417,162.817 209.833 M237.150 209.833 C 237.150 216.250,237.195 218.828,237.250 215.562 C 237.304 212.296,237.304 207.046,237.249 203.895 C 237.195 200.744,237.150 203.417,237.150 209.833 M279.149 209.667 C 279.149 215.808,279.194 218.321,279.249 215.250 C 279.304 212.179,279.304 207.154,279.249 204.083 C 279.194 201.012,279.149 203.525,279.149 209.667 M195.150 250.833 C 195.150 257.433,195.195 260.181,195.249 256.938 C 195.304 253.696,195.304 248.296,195.250 244.938 C 195.195 241.581,195.151 244.233,195.150 250.833 M204.817 250.833 C 204.817 257.433,204.862 260.181,204.916 256.938 C 204.971 253.696,204.971 248.296,204.916 244.938 C 204.862 241.581,204.817 244.233,204.817 250.833 M121.150 250.833 C 121.150 257.250,121.195 259.828,121.250 256.562 C 121.304 253.296,121.304 248.046,121.249 244.895 C 121.195 241.744,121.150 244.417,121.150 250.833 M162.817 250.833 C 162.817 257.250,162.862 259.828,162.916 256.562 C 162.971 253.296,162.971 248.046,162.916 244.895 C 162.861 241.744,162.817 244.417,162.817 250.833 M237.150 250.833 C 237.150 257.250,237.195 259.828,237.250 256.562 C 237.304 253.296,237.304 248.046,237.249 244.895 C 237.195 241.744,237.150 244.417,237.150 250.833 M195.150 291.667 C 195.150 298.175,195.195 300.837,195.249 297.583 C 195.304 294.329,195.304 289.004,195.249 285.750 C 195.195 282.496,195.150 285.158,195.150 291.667 M204.817 291.667 C 204.817 298.175,204.862 300.837,204.916 297.583 C 204.971 294.329,204.971 289.004,204.916 285.750 C 204.862 282.496,204.817 285.158,204.817 291.667 M121.150 291.667 C 121.150 297.992,121.195 300.579,121.249 297.417 C 121.304 294.254,121.304 289.079,121.249 285.917 C 121.195 282.754,121.150 285.342,121.150 291.667 M162.817 291.667 C 162.817 297.992,162.861 300.579,162.916 297.417 C 162.971 294.254,162.971 289.079,162.916 285.917 C 162.861 282.754,162.817 285.342,162.817 291.667 M237.150 291.667 C 237.150 297.992,237.195 300.579,237.249 297.417 C 237.304 294.254,237.304 289.079,237.249 285.917 C 237.195 282.754,237.150 285.342,237.150 291.667 M147.417 325.583 C 176.338 325.630,223.663 325.630,252.583 325.583 C 281.504 325.536,257.842 325.498,200.000 325.498 C 142.158 325.498,118.496 325.536,147.417 325.583 " stroke="none" fill="#44bcac" fill-rule="evenodd"></path></g></svg>